<svg xmlns="http://www.w3.org/2000/svg" width="1144" height="400" viewBox="0 0 1144 400" version="1.1"><path d="M 341 2.196 C 339.075 3.501, 312.648 34.167, 282.272 70.344 C 222.658 141.344, 223.544 140.115, 225.997 148.460 C 228.976 158.594, 240.141 163.874, 249.349 159.505 C 251.434 158.515, 271.278 135.644, 308 91.906 C 338.525 55.550, 364.143 24.610, 364.929 23.152 C 368.357 16.793, 365.912 7.531, 359.564 2.834 C 354.890 -0.626, 345.634 -0.944, 341 2.196 M 168.500 66.718 C 165.445 67.460, 160.052 71.868, 157.919 75.366 C 154.265 81.357, 155.177 86.018, 165.655 114.892 C 170.966 129.527, 176.149 142.706, 177.173 144.179 C 182.167 151.364, 192.954 153.663, 200.316 149.114 C 204.570 146.485, 208 140.593, 208 135.917 C 208 130.796, 187.327 75.007, 184.177 71.627 C 179.819 66.950, 174.457 65.271, 168.500 66.718 M 962.500 143.484 C 959.750 144.227, 954.913 145.805, 951.750 146.990 L 946 149.144 946 159.179 C 946 166.821, 946.298 169.088, 947.250 168.687 C 962.885 162.093, 970.182 160.516, 981.861 161.209 C 994.847 161.980, 999.362 165.828, 999.266 176.047 C 999.124 191.113, 983.956 210.114, 954.770 231.789 L 943.040 240.500 943.020 248.750 L 943 257 982.500 257 L 1022 257 1022 247.500 L 1022 238 999.434 238 L 976.869 238 984.399 232.016 C 1001.276 218.605, 1013.921 203.208, 1018.830 190.093 C 1022.379 180.609, 1022.395 168.652, 1018.869 160.994 C 1014.503 151.511, 1006.598 145.543, 995.201 143.124 C 988.037 141.604, 968.663 141.817, 962.500 143.484 M 1041 199.395 L 1041 257 1070.750 256.985 C 1103.111 256.969, 1108.324 256.351, 1118.613 251.313 C 1130.007 245.734, 1139.343 232.516, 1142.496 217.500 C 1144.436 208.259, 1144.434 186.466, 1142.492 178.231 C 1138.379 160.785, 1127.271 149.442, 1109.329 144.367 C 1104.676 143.050, 1097.195 142.624, 1072.250 142.254 L 1041 141.791 1041 199.395 M 7.922 147.274 C 2.658 150.821, 0 155.498, -0 161.214 C -0 168.123, 3.194 173.470, 9.183 176.586 C 13.580 178.874, 176.616 207.255, 182.592 206.773 C 194.568 205.806, 201.441 193.664, 196.023 183.044 C 192.048 175.254, 195.652 176.157, 103.695 159.904 C 57.388 151.720, 17.654 145.018, 15.398 145.012 C 12.771 145.004, 10.082 145.818, 7.922 147.274 M 268.367 162.918 C 257.293 169.670, 258.257 186.427, 270.071 192.537 C 271.629 193.342, 286.004 196.313, 302.017 199.139 C 334.066 204.796, 335.515 204.803, 341.991 199.354 C 346.255 195.766, 348 191.946, 348 186.198 C 348 180.534, 345.236 175.623, 340.497 172.863 C 337.209 170.949, 282.888 160.997, 275.762 161.004 C 273.332 161.006, 270.153 161.829, 268.367 162.918 M 1063 200.097 L 1063 238.194 1080.750 237.847 C 1097.838 237.513, 1098.713 237.395, 1104.224 234.689 C 1111.077 231.324, 1116.187 225.659, 1119.207 218.079 C 1121.139 213.229, 1121.434 210.596, 1121.465 197.932 C 1121.499 183.673, 1121.436 183.239, 1118.490 177.475 C 1116.621 173.819, 1113.855 170.347, 1111.195 168.319 C 1104.339 163.089, 1098.932 162, 1079.818 162 L 1063 162 1063 200.097 M 235.922 212.274 C 230.931 215.637, 228 220.542, 228 225.531 C 228 228.581, 236.127 252.109, 257.039 309.608 C 273.011 353.520, 286.872 390.809, 287.843 392.471 C 291.833 399.303, 301.867 402.188, 308.931 398.536 C 315.213 395.287, 319.863 386.288, 318.358 380.292 C 316.574 373.184, 259.866 219.295, 258.203 217.048 C 252.874 209.850, 242.740 207.679, 235.922 212.274" stroke="none" fill="#fca704" fill-rule="evenodd"/><path d="M 428 142.690 C 416.600 144.597, 405.841 150.952, 401.619 158.275 C 394.461 170.690, 396.746 190.128, 406.211 197.347 C 413.101 202.603, 416.722 203.276, 441.500 203.911 C 462.137 204.439, 464.905 204.712, 468.443 206.569 C 474.677 209.839, 476.407 212.937, 476.846 221.612 C 477.253 229.676, 475.684 235.590, 471.841 240.475 C 469.064 244.006, 461.722 247.561, 454.117 249.057 C 445.816 250.690, 425.426 249.657, 413.551 247.001 C 408.629 245.901, 404.215 245, 403.743 245 C 403.271 245, 403.023 246.912, 403.193 249.250 L 403.500 253.500 412 255.276 C 416.675 256.253, 427.475 257.328, 436 257.664 C 449.803 258.208, 452.426 258.041, 459.957 256.133 C 476.806 251.866, 485.092 242.622, 486.599 226.409 C 487.858 212.859, 482.570 202.718, 471.742 197.914 C 466.900 195.766, 464.744 195.547, 443.500 195.044 C 422.282 194.542, 420.146 194.326, 415.934 192.250 C 409.516 189.087, 406.993 184.308, 407.022 175.364 C 407.049 166.941, 409.285 161.560, 414.565 157.207 C 420.842 152.033, 425.842 150.766, 442 150.257 C 455.671 149.827, 462.187 150.434, 477.750 153.591 C 480.985 154.247, 481 154.231, 481 150.250 C 481 145.715, 481.811 146.084, 466 143.433 C 458.211 142.127, 434.178 141.657, 428 142.690 M 541.191 143.967 C 531.658 146.540, 525.092 150.194, 518.933 156.353 C 506.529 168.757, 501.364 191.623, 505.548 215.613 C 510.395 243.410, 529.494 257.926, 561.292 257.983 C 591.494 258.036, 609.949 245.597, 616.369 220.862 C 618.569 212.387, 619.311 198.586, 618.084 189 C 615.127 165.913, 604.710 151.681, 585.888 145.014 C 576.520 141.696, 551.751 141.116, 541.191 143.967 M 638 199.500 L 638 257 675.500 257 L 713 257 713 253 L 713 249 680 249 L 647 249 647 195.500 L 647 142 642.500 142 L 638 142 638 199.500 M 772.011 146.699 C 770.863 149.340, 759.221 175.125, 746.140 204 L 722.357 256.500 726.818 256.810 C 729.271 256.981, 731.613 256.756, 732.020 256.310 C 732.428 255.865, 743.040 231.998, 755.604 203.273 C 768.167 174.548, 778.744 151.373, 779.108 151.773 C 779.865 152.604, 805 209.538, 805 210.421 C 805 210.739, 795.622 211, 784.161 211 L 763.321 211 762.161 213.547 C 759.632 219.096, 759.010 218.942, 785.148 219.232 L 809.296 219.500 817.398 238.225 L 825.500 256.950 830.750 256.975 C 833.638 256.989, 835.993 256.663, 835.983 256.250 C 835.974 255.838, 824.387 230.075, 810.233 199 L 784.500 142.500 779.300 142.199 L 774.099 141.899 772.011 146.699 M 850 199.409 L 850 257 854.500 257 L 859 257 859 203.949 L 859 150.897 882.250 151.199 C 903.410 151.473, 905.860 151.685, 909.500 153.558 C 920.289 159.109, 921.099 178.830, 910.892 187.447 C 906.203 191.405, 898.826 194.671, 890.250 196.584 C 883.445 198.102, 883 198.366, 883 200.894 C 883 202.793, 888.637 211.464, 902.113 230.294 L 921.227 257 927.113 257 C 930.351 257, 933 256.780, 933 256.512 C 933 256.243, 924.508 244.357, 914.129 230.098 L 895.257 204.174 899.879 202.441 C 913.068 197.497, 921.378 191.015, 925.606 182.373 C 931.015 171.316, 928.125 155.011, 919.604 148.511 C 912.507 143.099, 909.752 142.675, 878.750 142.230 L 850 141.818 850 199.409 M 545.265 151.542 C 530.099 155.626, 520.510 165.267, 516.571 180.389 C 513.163 193.475, 513.742 211.123, 517.984 223.453 C 523.634 239.874, 536.475 248.393, 557.561 249.707 C 585.080 251.422, 601.981 240.095, 607.108 216.500 C 608.960 207.979, 608.741 188.947, 606.703 181.265 C 602.203 164.303, 592.283 154.497, 576.201 151.115 C 568.945 149.589, 551.629 149.828, 545.265 151.542 M 193.362 223.921 C 188.832 226.683, 151.338 271.636, 149.424 276.601 C 146.286 284.736, 151.932 294.558, 161.177 297.048 C 165.299 298.158, 168.128 297.870, 173.330 295.811 C 175.977 294.763, 208.246 257.620, 214.447 248.483 C 217.911 243.378, 218.040 234.839, 214.726 229.922 C 209.606 222.324, 200.278 219.704, 193.362 223.921" stroke="none" fill="#0c0445" fill-rule="evenodd"/></svg>